<mxfile host="app.diagrams.net" modified="2020-06-25T11:07:16.508Z" agent="5.0 (Windows)" etag="fcgcXfJLUsXNsEb1RhIE" version="13.3.4" type="github">
  <diagram id="3jO2q79QekQxGxMABE4A" name="Page-1">
    <mxGraphModel dx="1602" dy="979" grid="1" gridSize="10" guides="1" tooltips="1" connect="1" arrows="1" fold="1" page="1" pageScale="1" pageWidth="1169" pageHeight="827" math="0" shadow="0" extFonts="CMU Sans Serif^https://fonts.googleapis.com/css?family=CMU+Sans+Serif">
      <root>
        <mxCell id="0" />
        <mxCell id="1" parent="0" />
        <mxCell id="yknS8TGnMi3s3szBie4E-102" value="" style="rounded=1;whiteSpace=wrap;html=1;fontFamily=CMU Sans Serif;fontSize=18;strokeColor=none;arcSize=19;fillColor=#FFF4F2;" vertex="1" parent="1">
          <mxGeometry x="90" y="45" width="780" height="150" as="geometry" />
        </mxCell>
        <mxCell id="yknS8TGnMi3s3szBie4E-4" value="" style="rounded=1;whiteSpace=wrap;html=1;fontFamily=CMU Sans Serif;FType=g;fontSize=16;strokeColor=none;fillColor=#E1F5E0;" vertex="1" parent="1">
          <mxGeometry x="90" y="550" width="780" height="110" as="geometry" />
        </mxCell>
        <mxCell id="yknS8TGnMi3s3szBie4E-74" value="" style="rounded=1;whiteSpace=wrap;html=1;fontFamily=CMU Sans Serif;fontSize=18;fillColor=none;strokeColor=#969696;fontColor=#969696;dashed=1;" vertex="1" parent="1">
          <mxGeometry x="420" y="70" width="400" height="100" as="geometry" />
        </mxCell>
        <mxCell id="yknS8TGnMi3s3szBie4E-77" value="" style="rounded=1;whiteSpace=wrap;html=1;fontFamily=CMU Sans Serif;fontSize=18;strokeColor=none;fillColor=#FFF2CC;arcSize=10;" vertex="1" parent="1">
          <mxGeometry x="90" y="220" width="780" height="260" as="geometry" />
        </mxCell>
        <mxCell id="yknS8TGnMi3s3szBie4E-90" style="edgeStyle=orthogonalEdgeStyle;shape=flexArrow;rounded=1;orthogonalLoop=1;jettySize=auto;html=1;exitX=0;exitY=0.5;exitDx=0;exitDy=0;entryX=0;entryY=0.5;entryDx=0;entryDy=0;shadow=0;dashed=1;fontFamily=CMU Sans Serif;fontSize=19;fontColor=#97D077;width=20;endSize=9.331428571428571;strokeColor=none;fillColor=#D4E1F5;" edge="1" parent="1" source="yknS8TGnMi3s3szBie4E-4" target="yknS8TGnMi3s3szBie4E-18">
          <mxGeometry relative="1" as="geometry">
            <Array as="points">
              <mxPoint x="40" y="605" />
              <mxPoint x="40" y="120" />
            </Array>
          </mxGeometry>
        </mxCell>
        <mxCell id="yknS8TGnMi3s3szBie4E-27" value="" style="rounded=1;whiteSpace=wrap;html=1;fillColor=none;fontFamily=CMU Sans Serif;fontSize=18;arcSize=9;strokeColor=#969696;dashed=1;" vertex="1" parent="1">
          <mxGeometry x="483.87" y="246.13" width="272.67" height="154" as="geometry" />
        </mxCell>
        <mxCell id="yknS8TGnMi3s3szBie4E-106" style="edgeStyle=orthogonalEdgeStyle;shape=flexArrow;rounded=1;orthogonalLoop=1;jettySize=auto;html=1;exitX=0.5;exitY=0;exitDx=0;exitDy=0;shadow=0;dashed=1;fillColor=#CCCCCC;fontFamily=CMU Sans Serif;fontSize=18;fontColor=#969696;entryX=0.5;entryY=1;entryDx=0;entryDy=0;strokeColor=none;width=16.27906976744186;endSize=6.365116279069768;endWidth=19.469983775013525;" edge="1" parent="1" source="yknS8TGnMi3s3szBie4E-26" target="yknS8TGnMi3s3szBie4E-18">
          <mxGeometry relative="1" as="geometry">
            <Array as="points">
              <mxPoint x="302" y="198" />
              <mxPoint x="270" y="198" />
            </Array>
          </mxGeometry>
        </mxCell>
        <mxCell id="yknS8TGnMi3s3szBie4E-26" value="" style="rounded=1;whiteSpace=wrap;html=1;fillColor=none;fontFamily=CMU Sans Serif;fontSize=18;arcSize=9;strokeColor=#969696;dashed=1;" vertex="1" parent="1">
          <mxGeometry x="162.25" y="246.13" width="280" height="152" as="geometry" />
        </mxCell>
        <mxCell id="yknS8TGnMi3s3szBie4E-1" value="Nature in general" style="rounded=1;whiteSpace=wrap;html=1;fontFamily=CMU Sans Serif;FType=g;fontSize=18;fillColor=none;fontColor=#969696;strokeColor=#969696;" vertex="1" parent="1">
          <mxGeometry x="400" y="570" width="120" height="70" as="geometry" />
        </mxCell>
        <mxCell id="yknS8TGnMi3s3szBie4E-2" value="Green spaces" style="rounded=1;whiteSpace=wrap;html=1;fontFamily=CMU Sans Serif;FType=g;fontSize=18;fillColor=none;fontColor=#969696;fontStyle=0;strokeColor=#969696;" vertex="1" parent="1">
          <mxGeometry x="546" y="570" width="120" height="70" as="geometry" />
        </mxCell>
        <mxCell id="yknS8TGnMi3s3szBie4E-3" value="Nature-based solutions" style="rounded=1;whiteSpace=wrap;html=1;fontFamily=CMU Sans Serif;FType=g;fontSize=18;fillColor=none;fontColor=#969696;strokeColor=#969696;" vertex="1" parent="1">
          <mxGeometry x="254" y="570" width="120" height="70" as="geometry" />
        </mxCell>
        <mxCell id="yknS8TGnMi3s3szBie4E-5" value="Flooding" style="rounded=1;whiteSpace=wrap;html=1;fillColor=none;fontFamily=CMU Sans Serif;FType=g;fontSize=18;fontColor=#969696;strokeColor=#969696;" vertex="1" parent="1">
          <mxGeometry x="174.68" y="259.63" width="120" height="60" as="geometry" />
        </mxCell>
        <mxCell id="yknS8TGnMi3s3szBie4E-6" value="Urban heat island effect" style="rounded=1;whiteSpace=wrap;html=1;fillColor=none;fontFamily=CMU Sans Serif;FType=g;fontSize=18;fontColor=#969696;strokeColor=#969696;" vertex="1" parent="1">
          <mxGeometry x="307.81" y="259.63" width="120" height="60" as="geometry" />
        </mxCell>
        <mxCell id="yknS8TGnMi3s3szBie4E-7" value="Air pollution" style="rounded=1;whiteSpace=wrap;html=1;fillColor=none;fontFamily=CMU Sans Serif;FType=g;fontSize=18;fontColor=#969696;strokeColor=#969696;" vertex="1" parent="1">
          <mxGeometry x="307.81" y="324.63" width="120" height="60" as="geometry" />
        </mxCell>
        <mxCell id="yknS8TGnMi3s3szBie4E-8" value="Carbon emissions" style="rounded=1;whiteSpace=wrap;html=1;fillColor=none;fontFamily=CMU Sans Serif;FType=g;fontSize=18;fontColor=#969696;strokeColor=#969696;" vertex="1" parent="1">
          <mxGeometry x="174.68" y="324.63" width="120" height="60" as="geometry" />
        </mxCell>
        <mxCell id="yknS8TGnMi3s3szBie4E-9" value="Recreation" style="rounded=1;whiteSpace=wrap;html=1;fillColor=none;fontFamily=CMU Sans Serif;FType=g;fontSize=18;fontColor=#969696;strokeColor=#969696;" vertex="1" parent="1">
          <mxGeometry x="624" y="259" width="120" height="60" as="geometry" />
        </mxCell>
        <mxCell id="yknS8TGnMi3s3szBie4E-10" value="Passive experience of nature" style="rounded=1;whiteSpace=wrap;html=1;fillColor=none;fontFamily=CMU Sans Serif;FType=g;fontSize=17;fontColor=#969696;strokeColor=#969696;" vertex="1" parent="1">
          <mxGeometry x="494" y="324.63" width="120" height="65.37" as="geometry" />
        </mxCell>
        <mxCell id="yknS8TGnMi3s3szBie4E-11" value="Food growing" style="rounded=1;whiteSpace=wrap;html=1;fillColor=none;fontFamily=CMU Sans Serif;FType=g;fontSize=18;fontColor=#969696;strokeColor=#969696;" vertex="1" parent="1">
          <mxGeometry x="624" y="330" width="120" height="60" as="geometry" />
        </mxCell>
        <mxCell id="yknS8TGnMi3s3szBie4E-12" value="Aesthetics" style="rounded=1;whiteSpace=wrap;html=1;fillColor=none;fontFamily=CMU Sans Serif;FType=g;fontSize=18;fontColor=#969696;strokeColor=#969696;" vertex="1" parent="1">
          <mxGeometry x="494" y="259" width="120" height="60" as="geometry" />
        </mxCell>
        <mxCell id="yknS8TGnMi3s3szBie4E-13" value="Biodiversity" style="rounded=1;whiteSpace=wrap;html=1;fontFamily=CMU Sans Serif;FType=g;fontSize=18;fillColor=#E1F5E0;fontColor=#969696;strokeColor=#969696;" vertex="1" parent="1">
          <mxGeometry x="890" y="480" width="120" height="60" as="geometry" />
        </mxCell>
        <mxCell id="yknS8TGnMi3s3szBie4E-16" value="Mental health" style="rounded=1;whiteSpace=wrap;html=1;fillColor=none;fontFamily=CMU Sans Serif;FType=g;fontSize=18;strokeColor=#969696;fontColor=#969696;" vertex="1" parent="1">
          <mxGeometry x="560.2" y="90" width="120" height="60" as="geometry" />
        </mxCell>
        <mxCell id="yknS8TGnMi3s3szBie4E-17" value="General health" style="rounded=1;whiteSpace=wrap;html=1;fillColor=none;fontFamily=CMU Sans Serif;FType=g;fontSize=18;strokeColor=#969696;fontColor=#969696;" vertex="1" parent="1">
          <mxGeometry x="430" y="90" width="120" height="60" as="geometry" />
        </mxCell>
        <mxCell id="yknS8TGnMi3s3szBie4E-18" value="Adaptation to climate change" style="rounded=1;whiteSpace=wrap;html=1;fillColor=none;fontFamily=CMU Sans Serif;FType=g;fontSize=18;strokeColor=#969696;fontColor=#969696;" vertex="1" parent="1">
          <mxGeometry x="130" y="90" width="280" height="60" as="geometry" />
        </mxCell>
        <mxCell id="yknS8TGnMi3s3szBie4E-22" value="Address" style="text;html=1;strokeColor=none;fillColor=none;align=center;verticalAlign=middle;whiteSpace=wrap;rounded=0;fontSize=20;fontFamily=CMU Sans Serif;fontStyle=1;fontColor=#9AC7BF;" vertex="1" parent="1">
          <mxGeometry x="370" y="446.26" width="40" height="20" as="geometry" />
        </mxCell>
        <mxCell id="yknS8TGnMi3s3szBie4E-25" value="Provide" style="text;html=1;strokeColor=none;fillColor=none;align=center;verticalAlign=middle;whiteSpace=wrap;rounded=0;fontSize=20;fontFamily=CMU Sans Serif;fontStyle=1;fontColor=#9AC7BF;" vertex="1" parent="1">
          <mxGeometry x="670" y="446.26" width="40" height="20" as="geometry" />
        </mxCell>
        <mxCell id="yknS8TGnMi3s3szBie4E-66" style="rounded=1;orthogonalLoop=1;jettySize=auto;html=1;exitX=1;exitY=0.75;exitDx=0;exitDy=0;fontFamily=CMU Sans Serif;fontSize=18;shape=flexArrow;edgeStyle=orthogonalEdgeStyle;sketch=0;shadow=0;strokeColor=none;width=20;endSize=7.344827586206897;endWidth=26;entryX=1;entryY=0.5;entryDx=0;entryDy=0;fillColor=#D4E1F5;" edge="1" parent="1" source="yknS8TGnMi3s3szBie4E-4" target="yknS8TGnMi3s3szBie4E-74">
          <mxGeometry relative="1" as="geometry">
            <mxPoint x="645" y="606.8800000000001" as="sourcePoint" />
            <mxPoint x="950" y="150" as="targetPoint" />
            <Array as="points">
              <mxPoint x="1030" y="633" />
              <mxPoint x="1030" y="120" />
            </Array>
          </mxGeometry>
        </mxCell>
        <mxCell id="yknS8TGnMi3s3szBie4E-78" value="NATURE&#39;S CONTRIBUTIONS" style="text;html=1;strokeColor=none;fillColor=none;align=center;verticalAlign=middle;whiteSpace=wrap;rounded=0;fontFamily=CMU Sans Serif;fontSize=18;rotation=-90;fontStyle=1;fontColor=#FF8000;" vertex="1" parent="1">
          <mxGeometry x="100" y="317" width="40" height="20" as="geometry" />
        </mxCell>
        <mxCell id="yknS8TGnMi3s3szBie4E-82" value="NATURE" style="text;html=1;strokeColor=none;fillColor=none;align=center;verticalAlign=middle;whiteSpace=wrap;rounded=0;fontFamily=CMU Sans Serif;fontSize=18;rotation=-90;fontStyle=1;fontColor=#97D077;" vertex="1" parent="1">
          <mxGeometry x="110" y="596.88" width="40" height="20" as="geometry" />
        </mxCell>
        <mxCell id="yknS8TGnMi3s3szBie4E-41" value="" style="html=1;shadow=0;dashed=0;align=center;verticalAlign=middle;shape=mxgraph.arrows2.jumpInArrow;dy=15;dx=38;arrowHead=78;fontFamily=CMU Sans Serif;fontSize=18;flipH=1;flipV=1;rotation=90;strokeColor=none;fontColor=#9AC7BF;fillColor=#9AC7BF;" vertex="1" parent="1">
          <mxGeometry x="286.57" y="376.57" width="170" height="216.87" as="geometry" />
        </mxCell>
        <mxCell id="yknS8TGnMi3s3szBie4E-43" value="" style="html=1;shadow=0;dashed=0;align=center;verticalAlign=middle;shape=mxgraph.arrows2.jumpInArrow;dy=15;dx=38;arrowHead=78;fontFamily=CMU Sans Serif;fontSize=18;flipH=1;flipV=0;rotation=90;strokeColor=none;fillColor=#9AC7BF;" vertex="1" parent="1">
          <mxGeometry x="525.17" y="447.03" width="170" height="75.94" as="geometry" />
        </mxCell>
        <mxCell id="yknS8TGnMi3s3szBie4E-87" value="Wellbeing" style="rounded=1;whiteSpace=wrap;html=1;fillColor=none;fontFamily=CMU Sans Serif;FType=g;fontSize=18;strokeColor=#969696;fontColor=#969696;" vertex="1" parent="1">
          <mxGeometry x="690" y="90" width="120" height="60" as="geometry" />
        </mxCell>
        <mxCell id="yknS8TGnMi3s3szBie4E-93" value="" style="html=1;shadow=0;dashed=0;align=center;verticalAlign=middle;shape=mxgraph.arrows2.jumpInArrow;dy=15;dx=38;arrowHead=78;fontFamily=CMU Sans Serif;fontSize=18;flipH=1;flipV=1;rotation=90;strokeColor=none;fontColor=#9AC7BF;fillColor=#9AC7BF;" vertex="1" parent="1">
          <mxGeometry x="214.12" y="448.13" width="170" height="73.74" as="geometry" />
        </mxCell>
        <mxCell id="yknS8TGnMi3s3szBie4E-95" style="edgeStyle=orthogonalEdgeStyle;shape=flexArrow;rounded=1;orthogonalLoop=1;jettySize=auto;html=1;exitX=0.5;exitY=0;exitDx=0;exitDy=0;shadow=0;fontFamily=CMU Sans Serif;fontSize=18;strokeColor=none;width=19.444444444444443;endSize=8;endWidth=20.15432098765432;entryX=0.5;entryY=1;entryDx=0;entryDy=0;fillColor=#D4E1F5;" edge="1" parent="1" source="yknS8TGnMi3s3szBie4E-27" target="yknS8TGnMi3s3szBie4E-16">
          <mxGeometry relative="1" as="geometry">
            <mxPoint x="717.3" y="227" as="sourcePoint" />
            <mxPoint x="590" y="170" as="targetPoint" />
            <Array as="points">
              <mxPoint x="620" y="246" />
            </Array>
          </mxGeometry>
        </mxCell>
        <mxCell id="yknS8TGnMi3s3szBie4E-96" style="edgeStyle=orthogonalEdgeStyle;shape=flexArrow;rounded=1;orthogonalLoop=1;jettySize=auto;html=1;exitX=1;exitY=0.5;exitDx=0;exitDy=0;shadow=0;fontFamily=CMU Sans Serif;fontSize=18;strokeColor=none;width=19.444444444444443;endSize=8;endWidth=20.15432098765432;fillColor=#E1F5E0;" edge="1" parent="1" source="yknS8TGnMi3s3szBie4E-4" target="yknS8TGnMi3s3szBie4E-13">
          <mxGeometry relative="1" as="geometry">
            <mxPoint x="960" y="632" as="sourcePoint" />
            <mxPoint x="960" y="550" as="targetPoint" />
            <Array as="points" />
          </mxGeometry>
        </mxCell>
        <mxCell id="yknS8TGnMi3s3szBie4E-97" style="edgeStyle=orthogonalEdgeStyle;shape=flexArrow;rounded=1;orthogonalLoop=1;jettySize=auto;html=1;exitX=0.5;exitY=0;exitDx=0;exitDy=0;shadow=0;fontFamily=CMU Sans Serif;fontSize=18;strokeColor=none;fillColor=#CCCCCC;width=19.444444444444443;endSize=8;endWidth=20.15432098765432;entryX=1;entryY=0.5;entryDx=0;entryDy=0;" edge="1" parent="1" source="yknS8TGnMi3s3szBie4E-13" target="yknS8TGnMi3s3szBie4E-77">
          <mxGeometry relative="1" as="geometry">
            <mxPoint x="1000" y="383" as="sourcePoint" />
            <mxPoint x="1000" y="301" as="targetPoint" />
            <Array as="points">
              <mxPoint x="950" y="350" />
            </Array>
          </mxGeometry>
        </mxCell>
      </root>
    </mxGraphModel>
  </diagram>
</mxfile>
